<svg xmlns="http://www.w3.org/2000/svg" viewBox="0 0 64 64" fill="none">
  <rect width="64" height="64" rx="14" fill="#0F2D3D"/>
  <!-- Stethoscope simplified for favicon -->
  <path d="M21 24 C21 24 19 22 19 19 C19 16 21.5 14 24.5 14 C27.5 14 30 16 30 19"
    stroke="white" stroke-width="2.5" stroke-linecap="round" fill="none"/>
  <path d="M43 24 C43 24 45 22 45 19 C45 16 42.5 14 39.5 14 C36.5 14 34 16 34 19"
    stroke="white" stroke-width="2.5" stroke-linecap="round" fill="none"/>
  <circle cx="24.5" cy="14" r="2" fill="white"/>
  <circle cx="39.5" cy="14" r="2" fill="white"/>
  <path d="M21 24 Q21 33 24.5 38 Q28 44 32 47 Q36 44 39.5 38 Q43 33 43 24"
    stroke="white" stroke-width="2.5" stroke-linecap="round" stroke-linejoin="round" fill="none"/>
  <path d="M24.5 38 Q32 50 39.5 38"
    stroke="white" stroke-width="2.5" stroke-linecap="round" fill="none"/>
  <!-- Teal checkmark -->
  <path d="M26 37 L31 43 L40 30"
    stroke="#2DD4BF" stroke-width="3" stroke-linecap="round" stroke-linejoin="round" fill="none"/>
</svg>
